<?xml version="1.0" standalone="no"?>
<!DOCTYPE svg PUBLIC "-//W3C//DTD SVG 20010904//EN"
        "http://www.w3.org/TR/2001/REC-SVG-20010904/DTD/svg10.dtd">
<svg version="1.0" xmlns="http://www.w3.org/2000/svg"
     width="1000.000000pt" height="1000.000000pt" viewBox="0 0 300.000000 300.000000"
     preserveAspectRatio="xMidYMid meet">
    <metadata>
        Created by potrace 1.10, written by Peter Selinger 2001-2011
    </metadata>
    <g transform="translate(-85.000000,565.000000) scale(0.1,-0.1)"
       fill="#3A97D3" stroke="none">
        <path d="M1425 3242 l-165 -91 0 -137 c0 -168 24 -222 92 -205 33 8 48 3 48
-16 0 -46 55 -82 87 -56 21 18 32 12 49 -27 31 -68 47 -64 254 56 l180 104 6
164 6 163 -71 -6 c-61 -5 -71 1 -71 38 0 38 -9 43 -60 35 -50 -7 -60 -2 -60
32 0 68 -111 48 -295 -54z m150 13 c-4 -13 -59 -54 -122 -90 l-113 -67 0 -130
c0 -82 -7 -126 -20 -118 -11 7 -20 71 -20 142 l0 129 125 79 c132 84 164 96
150 55z m165 -30 c0 -36 -57 -91 -150 -143 l-110 -62 0 -119 c0 -117 -24 -171
-48 -109 -29 76 -13 285 23 296 19 7 80 42 134 78 87 59 151 84 151 59z m109
-109 c-6 -17 -64 -61 -129 -98 l-119 -68 0 -129 c-1 -90 -7 -123 -22 -108 -12
12 -18 77 -15 148 l6 127 140 84 c149 88 157 91 139 44z m85 -171 c1 -39 -30
-85 -56 -85 -50 0 -6 98 54 119 1 1 2 -15 2 -34z"/>
        <path d="M2240 3000 c0 -111 6 -140 30 -140 20 0 30 20 30 60 0 51 8 60 50 60
43 0 50 -9 50 -62 0 -40 9 -58 25 -53 33 11 35 258 1 270 -13 4 -26 -16 -30
-47 -9 -81 -96 -85 -96 -5 0 37 -10 57 -30 57 -24 0 -30 -29 -30 -140z"/>
        <path d="M3064 3007 c7 -157 43 -184 142 -106 101 79 62 206 -72 230 l-76 14
6 -138z m132 -2 c5 -46 -3 -69 -27 -78 -44 -17 -64 20 -53 94 12 84 72 72 80
-16z"/>
        <path d="M3423 2998 c-4 -109 1 -140 21 -133 34 11 40 275 7 275 -15 0 -25
-52 -28 -142z"/>
        <path d="M2525 3055 c-77 -97 -14 -225 88 -176 l57 28 -70 14 -70 14 65 2 c65
3 85 41 50 95 -25 37 -97 51 -120 23z"/>
        <path d="M2700 3050 c-32 -38 -13 -86 45 -111 41 -18 41 -19 -10 -9 -61 12
-72 -11 -24 -50 23 -20 42 -21 80 -3 63 29 63 79 -1 103 -27 10 -50 24 -50 30
0 6 23 5 50 -2 60 -15 68 21 11 51 -52 28 -72 26 -101 -9z"/>
        <path d="M2905 3067 c-42 -17 -29 -99 20 -124 43 -23 42 -23 -12 -13 -40 8
-54 4 -49 -13 15 -45 73 -69 111 -45 56 35 54 86 -4 107 -66 26 -67 49 -1 33
54 -14 65 5 26 44 -25 25 -49 28 -91 11z"/>
        <path d="M3324 3066 c-41 -8 -45 -19 -40 -101 7 -110 56 -144 56 -39 0 44 11
74 30 81 30 12 44 75 15 70 -8 -1 -36 -6 -61 -11z"/>
        <path d="M3611 3016 l-28 -66 -13 55 c-8 30 -27 55 -42 55 -34 0 -35 6 4 -106
40 -117 79 -120 109 -9 13 47 27 91 31 99 5 7 -1 19 -12 26 -11 7 -33 -17 -49
-54z"/>
        <path d="M3720 3040 c-63 -63 -19 -180 68 -180 61 0 77 57 18 66 l-56 8 55 3
c68 4 79 89 16 122 -51 28 -55 27 -101 -19z"/>
    </g>
</svg>
